TITLE ""
FILE "1Q_t_1129-1138.mp3" MP3
  TRACK 01 AUDIO
    TITLE "1Q_t_1129-1138_01"
    INDEX 01 00:00:00
  TRACK 02 AUDIO
    TITLE "1Q_t_1129-1138_02"
    INDEX 01 00:00:10
  TRACK 03 AUDIO
    TITLE "1Q_t_1129-1138_03"
    INDEX 01 00:01:35
  TRACK 04 AUDIO
    TITLE "1Q_t_1129-1138_04"
    INDEX 01 00:01:43
  TRACK 05 AUDIO
    TITLE "1Q_t_1129-1138_05"
    INDEX 01 00:02:52
  TRACK 06 AUDIO
    TITLE "1Q_t_1129-1138_06"
    INDEX 01 00:02:58
  TRACK 07 AUDIO
    TITLE "1Q_t_1129-1138_07"
    INDEX 01 00:07:06
  TRACK 08 AUDIO
    TITLE "1Q_t_1129-1138_08"
    INDEX 01 00:07:51
  TRACK 09 AUDIO
    TITLE "1Q_t_1129-1138_09"
    INDEX 01 00:08:63
  TRACK 10 AUDIO
    TITLE "1Q_t_1129-1138_10"
    INDEX 01 00:08:73
  TRACK 11 AUDIO
    TITLE "1Q_t_1129-1138_11"
    INDEX 01 00:11:55
  TRACK 12 AUDIO
    TITLE "1Q_t_1129-1138_12"
    INDEX 01 00:11:63
  TRACK 13 AUDIO
    TITLE "1Q_t_1129-1138_13"
    INDEX 01 00:16:49
  TRACK 14 AUDIO
    TITLE "1Q_t_1129-1138_14"
    INDEX 01 00:17:17
  TRACK 15 AUDIO
    TITLE "1Q_t_1129-1138_15"
    INDEX 01 00:18:40
  TRACK 16 AUDIO
    TITLE "1Q_t_1129-1138_16"
    INDEX 01 00:18:47
  TRACK 17 AUDIO
    TITLE "1Q_t_1129-1138_17"
    INDEX 01 00:20:52
  TRACK 18 AUDIO
    TITLE "1Q_t_1129-1138_18"
    INDEX 01 00:20:62
  TRACK 19 AUDIO
    TITLE "1Q_t_1129-1138_19"
    INDEX 01 00:26:68
  TRACK 20 AUDIO
    TITLE "1Q_t_1129-1138_20"
    INDEX 01 00:27:40
  TRACK 21 AUDIO
    TITLE "1Q_t_1129-1138_21"
    INDEX 01 00:28:61
  TRACK 22 AUDIO
    TITLE "1Q_t_1129-1138_22"
    INDEX 01 00:28:71
  TRACK 23 AUDIO
    TITLE "1Q_t_1129-1138_23"
    INDEX 01 00:30:47
  TRACK 24 AUDIO
    TITLE "1Q_t_1129-1138_24"
    INDEX 01 00:30:54
  TRACK 25 AUDIO
    TITLE "1Q_t_1129-1138_25"
    INDEX 01 00:35:60
  TRACK 26 AUDIO
    TITLE "1Q_t_1129-1138_26"
    INDEX 01 00:36:32
  TRACK 27 AUDIO
    TITLE "1Q_t_1129-1138_27"
    INDEX 01 00:37:47
  TRACK 28 AUDIO
    TITLE "1Q_t_1129-1138_28"
    INDEX 01 00:37:57
  TRACK 29 AUDIO
    TITLE "1Q_t_1129-1138_29"
    INDEX 01 00:39:12
  TRACK 30 AUDIO
    TITLE "1Q_t_1129-1138_30"
    INDEX 01 00:39:20
  TRACK 31 AUDIO
    TITLE "1Q_t_1129-1138_31"
    INDEX 01 00:46:06
  TRACK 32 AUDIO
    TITLE "1Q_t_1129-1138_32"
    INDEX 01 00:46:50
  TRACK 33 AUDIO
    TITLE "1Q_t_1129-1138_33"
    INDEX 01 00:48:03
  TRACK 34 AUDIO
    TITLE "1Q_t_1129-1138_34"
    INDEX 01 00:48:13
  TRACK 35 AUDIO
    TITLE "1Q_t_1129-1138_35"
    INDEX 01 00:49:40
  TRACK 36 AUDIO
    TITLE "1Q_t_1129-1138_36"
    INDEX 01 00:49:46
  TRACK 37 AUDIO
    TITLE "1Q_t_1129-1138_37"
    INDEX 01 00:55:11
  TRACK 38 AUDIO
    TITLE "1Q_t_1129-1138_38"
    INDEX 01 00:55:54
  TRACK 39 AUDIO
    TITLE "1Q_t_1129-1138_39"
    INDEX 01 00:56:68
  TRACK 40 AUDIO
    TITLE "1Q_t_1129-1138_40"
    INDEX 01 00:57:02
  TRACK 41 AUDIO
    TITLE "1Q_t_1129-1138_41"
    INDEX 01 00:58:06
  TRACK 42 AUDIO
    TITLE "1Q_t_1129-1138_42"
    INDEX 01 00:58:14
  TRACK 43 AUDIO
    TITLE "1Q_t_1129-1138_43"
    INDEX 01 01:04:28
  TRACK 44 AUDIO
    TITLE "1Q_t_1129-1138_44"
    INDEX 01 01:04:71
  TRACK 45 AUDIO
    TITLE "1Q_t_1129-1138_45"
    INDEX 01 01:05:69
  TRACK 46 AUDIO
    TITLE "1Q_t_1129-1138_46"
    INDEX 01 01:06:01
  TRACK 47 AUDIO
    TITLE "1Q_t_1129-1138_47"
    INDEX 01 01:08:06
  TRACK 48 AUDIO
    TITLE "1Q_t_1129-1138_48"
    INDEX 01 01:08:12
  TRACK 49 AUDIO
    TITLE "1Q_t_1129-1138_49"
    INDEX 01 01:14:38
  TRACK 50 AUDIO
    TITLE "1Q_t_1129-1138_50"
    INDEX 01 01:15:08
  TRACK 51 AUDIO
    TITLE "1Q_t_1129-1138_51"
    INDEX 01 01:16:21
  TRACK 52 AUDIO
    TITLE "1Q_t_1129-1138_52"
    INDEX 01 01:16:29
  TRACK 53 AUDIO
    TITLE "1Q_t_1129-1138_53"
    INDEX 01 01:19:18
  TRACK 54 AUDIO
    TITLE "1Q_t_1129-1138_54"
    INDEX 01 01:19:24
  TRACK 55 AUDIO
    TITLE "1Q_t_1129-1138_55"
    INDEX 01 01:24:44
  TRACK 56 AUDIO
    TITLE "1Q_t_1129-1138_56"
    INDEX 01 01:25:18
  TRACK 57 AUDIO
    TITLE "1Q_t_1129-1138_57"
    INDEX 01 01:26:31
  TRACK 58 AUDIO
    TITLE "1Q_t_1129-1138_58"
    INDEX 01 01:26:37
  TRACK 59 AUDIO
    TITLE "1Q_t_1129-1138_59"
    INDEX 01 01:28:44
  TRACK 60 AUDIO
    TITLE "1Q_t_1129-1138_60"
    INDEX 01 01:28:52
  TRACK 61 AUDIO
    TITLE "1Q_t_1129-1138_61"
    INDEX 01 01:35:27
